<?xml version="1.0" encoding="UTF-8" standalone="no"?><!DOCTYPE svg PUBLIC "-//W3C//DTD SVG 1.1//EN" "http://www.w3.org/Graphics/SVG/1.1/DTD/svg11.dtd"><svg width="2200px" height="2200px" version="1.1" xmlns="http://www.w3.org/2000/svg" xmlns:xlink="http://www.w3.org/1999/xlink" xml:space="preserve" xmlns:serif="http://www.serif.com/" style="fill-rule:evenodd;clip-rule:evenodd;stroke-linejoin:round;stroke-miterlimit:2;"><g id="Objects"><g transform="matrix(1,0,0,1,-0.91,-1.003)"><path d="M661,2201L347,1887L1854,380L2201,727L2200,2200L661,2201Z" style="fill:url(#_Linear1);fill-rule:nonzero;"/><path d="M1892,706L1892,1792C1892,1866 1833,1926 1759,1926L441,1926C367,1926 308,1866 308,1792L308,706L350,663L1844,663L1892,706Z" style="fill:white;fill-rule:nonzero;"/><path d="M1892,474L1892,706L308,706L308,474C308,401 367,341 440,341L1760,341C1833,341 1892,401 1892,474Z" style="fill:url(#_Linear2);fill-rule:nonzero;"/><path d="M681,1499L739,1420C772,1452 812,1475 858,1475C911,1475 946,1452 946,1410C946,1362 918,1333 800,1333L800,1244C898,1244 928,1214 928,1171C928,1133 904,1111 861,1111C823,1111 794,1129 760,1159L696,1082C746,1039 801,1013 867,1013C980,1013 1054,1066 1054,1162C1054,1218 1022,1258 964,1282L964,1286C1027,1304 1072,1348 1072,1418C1072,1519 979,1576 870,1576C782,1576 721,1545 681,1499Z" style="fill-rule:nonzero;"/><path d="M1173,1465L1292,1465L1292,1150L1190,1150L1190,1072C1248,1061 1287,1047 1325,1023L1417,1023L1417,1465L1519,1465L1519,1566L1173,1566L1173,1465L1173,1465Z" style="fill-rule:nonzero;"/><g><circle cx="573" cy="485" r="49" style="fill:url(#_Radial3);"/><path d="M573,274C557,274 543,287 543,304L543,468C543,484 557,497 573,497C589,497 603,484 603,468L603,304C603,287 589,274 573,274Z" style="fill:url(#_Linear4);fill-rule:nonzero;"/></g><g><g transform="matrix(1,0,0,1,349.92126,-3.464567)"><circle cx="573" cy="485" r="49" style="fill:url(#_Radial5);"/></g><path d="M924,274C908,274 895,287 895,304L895,468C895,484 908,497 924,497C941,497 954,484 954,468L954,304C954,287 941,274 924,274Z" style="fill:url(#_Linear6);fill-rule:nonzero;"/></g><g><g transform="matrix(1,0,0,1,699.84252,0)"><circle cx="573" cy="485" r="49" style="fill:url(#_Radial7);"/></g><g transform="matrix(1,0,0,1,1053.228346,0)"><circle cx="573" cy="485" r="49" style="fill:url(#_Radial8);"/></g><path d="M1276,274C1259,274 1246,287 1246,304L1246,468C1246,484 1259,497 1276,497C1292,497 1305,484 1305,468L1305,304C1305,287 1292,274 1276,274Z" style="fill:url(#_Linear9);fill-rule:nonzero;"/></g><g><g transform="matrix(1,0,0,1,1053.228346,0)"><circle cx="573" cy="485" r="49" style="fill:url(#_Radial10);"/></g><path d="M1627,274C1611,274 1597,287 1597,304L1597,468C1597,484 1611,497 1627,497C1643,497 1657,484 1657,468L1657,304C1657,287 1643,274 1627,274Z" style="fill:url(#_Linear11);fill-rule:nonzero;"/></g></g></g><defs><linearGradient id="_Linear1" x1="0" y1="0" x2="1" y2="0" gradientUnits="userSpaceOnUse" gradientTransform="matrix(749.627,861.2735,-861.2735,749.627,874.5676,848.3976)"><stop offset="0" style="stop-color:black;stop-opacity:0.51"/><stop offset="1" style="stop-color:black;stop-opacity:0"/><stop offset="1" style="stop-color:black;stop-opacity:0"/></linearGradient><linearGradient id="_Linear2" x1="0" y1="0" x2="1" y2="0" gradientUnits="userSpaceOnUse" gradientTransform="matrix(-0.91,376.990929,-376.990929,-0.91,1100.91,294.787402)"><stop offset="0" style="stop-color:rgb(99,25,236);stop-opacity:1"/><stop offset="1" style="stop-color:rgb(43,0,150);stop-opacity:1"/></linearGradient><radialGradient id="_Radial3" cx="0" cy="0" r="1" gradientUnits="userSpaceOnUse" gradientTransform="matrix(48.875,0,0,48.875,572.998,484.891)"><stop offset="0" style="stop-color:rgb(48,55,140);stop-opacity:1"/><stop offset="1" style="stop-color:rgb(48,44,142);stop-opacity:1"/><stop offset="1" style="stop-color:rgb(50,0,149);stop-opacity:1"/></radialGradient><linearGradient id="_Linear4" x1="0" y1="0" x2="1" y2="0" gradientUnits="userSpaceOnUse" gradientTransform="matrix(59.0455,0,0,59.0455,543.475,385.742)"><stop offset="0" style="stop-color:rgb(79,79,79);stop-opacity:1"/><stop offset="0" style="stop-color:rgb(189,189,189);stop-opacity:1"/><stop offset="1" style="stop-color:rgb(189,189,189);stop-opacity:1"/><stop offset="1" style="stop-color:rgb(79,79,79);stop-opacity:1"/></linearGradient><radialGradient id="_Radial5" cx="0" cy="0" r="1" gradientUnits="userSpaceOnUse" gradientTransform="matrix(48.875,0,0,48.875,572.998,484.891)"><stop offset="0" style="stop-color:rgb(48,55,140);stop-opacity:1"/><stop offset="1" style="stop-color:rgb(48,44,142);stop-opacity:1"/><stop offset="1" style="stop-color:rgb(50,0,149);stop-opacity:1"/></radialGradient><linearGradient id="_Linear6" x1="0" y1="0" x2="1" y2="0" gradientUnits="userSpaceOnUse" gradientTransform="matrix(59.0455,0,0,59.0455,894.8098,385.742)"><stop offset="0" style="stop-color:rgb(79,79,79);stop-opacity:1"/><stop offset="0" style="stop-color:rgb(189,189,189);stop-opacity:1"/><stop offset="1" style="stop-color:rgb(189,189,189);stop-opacity:1"/><stop offset="1" style="stop-color:rgb(79,79,79);stop-opacity:1"/></linearGradient><radialGradient id="_Radial7" cx="0" cy="0" r="1" gradientUnits="userSpaceOnUse" gradientTransform="matrix(48.875,0,0,48.875,572.998,484.891)"><stop offset="0" style="stop-color:rgb(48,55,140);stop-opacity:1"/><stop offset="1" style="stop-color:rgb(48,44,142);stop-opacity:1"/><stop offset="1" style="stop-color:rgb(50,0,149);stop-opacity:1"/></radialGradient><radialGradient id="_Radial8" cx="0" cy="0" r="1" gradientUnits="userSpaceOnUse" gradientTransform="matrix(48.875,0,0,48.875,572.998,484.891)"><stop offset="0" style="stop-color:rgb(48,55,140);stop-opacity:1"/><stop offset="1" style="stop-color:rgb(48,44,142);stop-opacity:1"/><stop offset="1" style="stop-color:rgb(50,0,149);stop-opacity:1"/></radialGradient><linearGradient id="_Linear9" x1="0" y1="0" x2="1" y2="0" gradientUnits="userSpaceOnUse" gradientTransform="matrix(59.0455,0,0,59.0455,1246.1447,385.742)"><stop offset="0" style="stop-color:rgb(79,79,79);stop-opacity:1"/><stop offset="0" style="stop-color:rgb(189,189,189);stop-opacity:1"/><stop offset="1" style="stop-color:rgb(189,189,189);stop-opacity:1"/><stop offset="1" style="stop-color:rgb(79,79,79);stop-opacity:1"/></linearGradient><radialGradient id="_Radial10" cx="0" cy="0" r="1" gradientUnits="userSpaceOnUse" gradientTransform="matrix(48.875,0,0,48.875,572.998,484.891)"><stop offset="0" style="stop-color:rgb(48,55,140);stop-opacity:1"/><stop offset="1" style="stop-color:rgb(48,44,142);stop-opacity:1"/><stop offset="1" style="stop-color:rgb(50,0,149);stop-opacity:1"/></radialGradient><linearGradient id="_Linear11" x1="0" y1="0" x2="1" y2="0" gradientUnits="userSpaceOnUse" gradientTransform="matrix(59.0455,0,0,59.0455,1597.4795,385.742)"><stop offset="0" style="stop-color:rgb(79,79,79);stop-opacity:1"/><stop offset="0" style="stop-color:rgb(189,189,189);stop-opacity:1"/><stop offset="1" style="stop-color:rgb(189,189,189);stop-opacity:1"/><stop offset="1" style="stop-color:rgb(79,79,79);stop-opacity:1"/></linearGradient></defs></svg>